<svg xmlns="http://www.w3.org/2000/svg" width="50" height="50" viewBox="0 0 50 50">
  <path id="Subtraction_1" data-name="Subtraction 1" d="M-4144,50a24.846,24.846,0,0,1-9.731-1.965,24.907,24.907,0,0,1-7.946-5.357,24.915,24.915,0,0,1-5.358-7.946A24.855,24.855,0,0,1-4169,25a24.854,24.854,0,0,1,1.964-9.731,24.916,24.916,0,0,1,5.358-7.947,24.917,24.917,0,0,1,7.946-5.358A24.844,24.844,0,0,1-4144,0a24.844,24.844,0,0,1,9.731,1.965,24.907,24.907,0,0,1,7.946,5.358,24.918,24.918,0,0,1,5.358,7.947A24.854,24.854,0,0,1-4119,25a24.855,24.855,0,0,1-1.964,9.731,24.917,24.917,0,0,1-5.358,7.946,24.907,24.907,0,0,1-7.946,5.357A24.846,24.846,0,0,1-4144,50Zm0-29.128h0l9.439,9.439a1.489,1.489,0,0,0,1.061.439,1.489,1.489,0,0,0,1.06-.439A1.491,1.491,0,0,0-4132,29.25a1.491,1.491,0,0,0-.439-1.061L-4144,16.629l-11.561,11.56A1.491,1.491,0,0,0-4156,29.25a1.491,1.491,0,0,0,.439,1.061,1.489,1.489,0,0,0,1.061.439,1.489,1.489,0,0,0,1.06-.439l9.439-9.439Z" transform="translate(4169)" fill="#3a150c"/>
</svg>
